<svg xmlns="http://www.w3.org/2000/svg" version="1.1" xmlns:xlink="http://www.w3.org/1999/xlink" xmlns:svgjs="http://svgjs.dev/svgjs" width="2000" height="267" viewBox="0 0 2000 267"><g transform="matrix(1,0,0,1,-1.2121212121212466,-4.271119405745111)"><svg viewBox="0 0 396 53" data-background-color="#ffffff" preserveAspectRatio="xMidYMid meet" height="267" width="2000" xmlns="http://www.w3.org/2000/svg" xmlns:xlink="http://www.w3.org/1999/xlink"><g id="tight-bounds" transform="matrix(1,0,0,1,0.2400000000000091,0.8667093566533879)"><svg viewBox="0 0 395.52 52.15155697493889" height="52.15155697493889" width="395.52"><g><svg viewBox="0 0 467.7275587817049 61.6725334510345" height="52.15155697493889" width="395.52"><g transform="matrix(1,0,0,1,72.20755878170485,8.523483277241382)"><svg viewBox="0 0 395.52000000000004 44.62556689655173" height="44.62556689655173" width="395.52000000000004"><g id="textblocktransform"><svg viewBox="0 0 395.52000000000004 44.62556689655173" height="44.62556689655173" width="395.52000000000004" id="textblock"><g><svg viewBox="0 0 395.52000000000004 44.62556689655173" height="44.62556689655173" width="395.52000000000004"><g transform="matrix(1,0,0,1,0,0)"><svg width="395.52000000000004" viewBox="0.8 -40.2 362.46999999999997 40.900000000000006" height="44.62556689655173" data-palette-color="#000000"><path d="M0.8 0L7.8-35 17.7-35 10.7 0 0.8 0ZM39.65-27.55Q44.1-27.55 46.77-25.18 49.45-22.8 49.45-18.35L49.45-18.35Q49.45-16.7 49.1-15L49.1-15 46.1 0 36.6 0 39.4-14.1Q39.6-14.95 39.6-15.9L39.6-15.9Q39.6-19.5 35.85-19.5L35.85-19.5Q33.35-19.5 31.75-17.98 30.15-16.45 29.5-13.4L29.5-13.4 26.8 0 17.3 0 22.7-27.1 31.7-27.1 31.15-24.3Q32.9-25.95 35.1-26.75 37.3-27.55 39.65-27.55L39.65-27.55ZM52.1 0L57.5-27.1 66.95-27.1 61.55 0 52.1 0ZM63.55-30.1Q61.1-30.1 59.6-31.45 58.1-32.8 58.1-34.8L58.1-34.8Q58.1-37.15 59.77-38.68 61.45-40.2 64.2-40.2L64.2-40.2Q66.7-40.2 68.2-38.93 69.7-37.65 69.7-35.65L69.7-35.65Q69.7-33.2 68-31.65 66.3-30.1 63.55-30.1L63.55-30.1ZM82.09-19L80.29-10.1Q80.19-9.4 80.19-9.2L80.19-9.2Q80.19-6.9 82.69-6.9L82.69-6.9Q84.04-6.9 85.54-7.7L85.54-7.7 86.74-1.15Q83.94 0.45 79.69 0.45L79.69 0.45Q75.49 0.45 73.02-1.65 70.54-3.75 70.54-7.5L70.54-7.5Q70.54-8.95 70.79-10.05L70.79-10.05 72.59-19 68.59-19 70.04-26.1 73.99-26.1 75.39-33.15 84.89-33.15 83.49-26.1 89.64-26.1 88.24-19 82.09-19ZM90.04 0L95.44-27.1 104.89-27.1 99.49 0 90.04 0ZM101.49-30.1Q99.04-30.1 97.54-31.45 96.04-32.8 96.04-34.8L96.04-34.8Q96.04-37.15 97.72-38.68 99.39-40.2 102.14-40.2L102.14-40.2Q104.64-40.2 106.14-38.93 107.64-37.65 107.64-35.65L107.64-35.65Q107.64-33.2 105.94-31.65 104.24-30.1 101.49-30.1L101.49-30.1ZM130.19-27.1L139.69-27.1 134.29 0 125.29 0 125.84-2.55Q122.59 0.45 117.99 0.45L117.99 0.45Q114.99 0.45 112.36-1.03 109.74-2.5 108.14-5.3 106.54-8.1 106.54-11.9L106.54-11.9Q106.54-16.3 108.51-19.88 110.49-23.45 113.86-25.5 117.24-27.55 121.24-27.55L121.24-27.55Q127.14-27.55 129.54-23.85L129.54-23.85 130.19-27.1ZM121.29-7.2Q124.14-7.2 125.94-9.3 127.74-11.4 127.74-14.75L127.74-14.75Q127.74-17.15 126.36-18.55 124.99-19.95 122.59-19.95L122.59-19.95Q119.74-19.95 117.94-17.85 116.14-15.75 116.14-12.35L116.14-12.35Q116.14-9.95 117.51-8.58 118.89-7.2 121.29-7.2L121.29-7.2ZM140.38 0L147.78-37.1 157.28-37.1 149.88 0 140.38 0ZM184.08 0.7Q179.73 0.7 175.83-0.35 171.93-1.4 169.48-3.05L169.48-3.05 173.38-10.45Q176.03-8.75 179.03-7.88 182.03-7 185.03-7L185.03-7Q187.88-7 189.46-7.83 191.03-8.65 191.03-10.1L191.03-10.1Q191.03-11.35 189.61-12.05 188.18-12.75 185.18-13.55L185.18-13.55Q181.78-14.45 179.53-15.38 177.28-16.3 175.66-18.2 174.03-20.1 174.03-23.2L174.03-23.2Q174.03-26.95 176.08-29.78 178.13-32.6 181.93-34.15 185.73-35.7 190.83-35.7L190.83-35.7Q194.58-35.7 197.83-34.93 201.08-34.15 203.43-32.7L203.43-32.7 199.83-25.35Q197.78-26.65 195.31-27.33 192.83-28 190.23-28L190.23-28Q187.28-28 185.61-27.05 183.93-26.1 183.93-24.6L183.93-24.6Q183.93-23.3 185.38-22.6 186.83-21.9 189.88-21.1L189.88-21.1Q193.28-20.25 195.51-19.35 197.73-18.45 199.33-16.6 200.93-14.75 200.93-11.75L200.93-11.75Q200.93-8.05 198.86-5.23 196.78-2.4 192.96-0.85 189.13 0.7 184.08 0.7L184.08 0.7ZM217.33-19L215.53-10.1Q215.43-9.4 215.43-9.2L215.43-9.2Q215.43-6.9 217.93-6.9L217.93-6.9Q219.28-6.9 220.78-7.7L220.78-7.7 221.98-1.15Q219.18 0.45 214.93 0.45L214.93 0.45Q210.73 0.45 208.25-1.65 205.78-3.75 205.78-7.5L205.78-7.5Q205.78-8.95 206.03-10.05L206.03-10.05 207.83-19 203.83-19 205.28-26.1 209.23-26.1 210.63-33.15 220.13-33.15 218.73-26.1 224.88-26.1 223.48-19 217.33-19ZM239.08-24.1Q242.48-27.55 248.88-27.55L248.88-27.55 247.23-19Q245.98-19.15 245.08-19.15L245.08-19.15Q241.88-19.15 239.95-17.63 238.03-16.1 237.38-12.8L237.38-12.8 234.78 0 225.28 0 230.68-27.1 239.68-27.1 239.08-24.1ZM277.72-15.65Q277.72-13.7 277.17-11.2L277.17-11.2 257.27-11.2Q257.77-6.8 263.42-6.8L263.42-6.8Q265.22-6.8 266.92-7.35 268.62-7.9 269.97-9L269.97-9 273.92-3.05Q269.17 0.45 262.37 0.45L262.37 0.45Q258.07 0.45 254.8-1.07 251.52-2.6 249.75-5.38 247.97-8.15 247.97-11.9L247.97-11.9Q247.97-16.35 250.05-19.93 252.12-23.5 255.85-25.53 259.57-27.55 264.37-27.55L264.37-27.55Q268.42-27.55 271.45-26.08 274.47-24.6 276.1-21.9 277.72-19.2 277.72-15.65L277.72-15.65ZM263.92-20.8Q261.62-20.8 260.07-19.58 258.52-18.35 257.82-16.2L257.82-16.2 268.97-16.2Q269.02-18.35 267.62-19.58 266.22-20.8 263.92-20.8L263.92-20.8ZM303.52-27.1L313.02-27.1 307.62 0 298.62 0 299.17-2.55Q295.92 0.45 291.32 0.45L291.32 0.45Q288.32 0.45 285.69-1.03 283.07-2.5 281.47-5.3 279.87-8.1 279.87-11.9L279.87-11.9Q279.87-16.3 281.85-19.88 283.82-23.45 287.19-25.5 290.57-27.55 294.57-27.55L294.57-27.55Q300.47-27.55 302.87-23.85L302.87-23.85 303.52-27.1ZM294.62-7.2Q297.47-7.2 299.27-9.3 301.07-11.4 301.07-14.75L301.07-14.75Q301.07-17.15 299.69-18.55 298.32-19.95 295.92-19.95L295.92-19.95Q293.07-19.95 291.27-17.85 289.47-15.75 289.47-12.35L289.47-12.35Q289.47-9.95 290.85-8.58 292.22-7.2 294.62-7.2L294.62-7.2ZM353.77-27.55Q358.07-27.55 360.67-25.15 363.27-22.75 363.27-18.35L363.27-18.35Q363.27-16.7 362.92-15L362.92-15 359.97 0 350.47 0 353.27-14Q353.47-14.95 353.47-15.9L353.47-15.9Q353.47-17.7 352.59-18.6 351.72-19.5 350.07-19.5L350.07-19.5Q345.52-19.5 344.32-13.65L344.32-13.65 341.57 0 332.07 0 334.92-14Q335.12-14.85 335.12-15.85L335.12-15.85Q335.12-17.65 334.24-18.57 333.37-19.5 331.72-19.5L331.72-19.5Q327.12-19.5 325.92-13.55L325.92-13.55 323.22 0 313.72 0 319.12-27.1 328.12-27.1 327.57-24.35Q330.92-27.55 335.67-27.55L335.67-27.55Q338.37-27.55 340.52-26.43 342.67-25.3 343.82-23.15L343.82-23.15Q345.72-25.3 348.24-26.43 350.77-27.55 353.77-27.55L353.77-27.55Z" opacity="1" transform="matrix(1,0,0,1,0,0)" fill="#ffffff" class="wordmark-text-0" data-fill-palette-color="primary" id="text-0"></path></svg></g></svg></g></svg></g></svg></g><g><svg viewBox="0 0 61.6725334510345 61.6725334510345" height="61.6725334510345" width="61.6725334510345"><g><svg xmlns="http://www.w3.org/2000/svg" data-name="Layer 1" viewBox="15 15 70 70" x="0" y="0" height="61.6725334510345" width="61.6725334510345" class="icon-icon-0" data-fill-palette-color="accent" id="icon-0"><path d="M50 85A10 10 0 0 1 40 75V25a5 5 0 1 0-10 0V52.5A7.5 7.5 0 0 1 22.5 60h-5a2.5 2.5 0 0 1 0-5h5A2.5 2.5 0 0 0 25 52.5V25a10 10 0 0 1 20 0V75a5 5 0 0 0 10 0V25a10 10 0 0 1 20 0V52.5A2.5 2.5 0 0 0 77.5 55h5a2.5 2.5 0 0 1 0 5h-5A7.5 7.5 0 0 1 70 52.5V25a5 5 0 0 0-10 0V75A10 10 0 0 1 50 85Z" fill="#ffffff" data-fill-palette-color="accent"></path></svg></g></svg></g></svg></g><defs></defs></svg><rect width="395.52" height="52.15155697493889" fill="none" stroke="none" visibility="hidden"></rect></g></svg></g></svg>